<?xml version="1.0" encoding="utf-8"?>
<!-- Generator: Adobe Illustrator 27.0.0, SVG Export Plug-In . SVG Version: 6.00 Build 0)  -->
<svg version="1.1" id="Calque_1" xmlns="http://www.w3.org/2000/svg" xmlns:xlink="http://www.w3.org/1999/xlink" x="0px" y="0px"
	 viewBox="0 0 206 32" style="enable-background:new 0 0 206 32;" xml:space="preserve">
<style type="text/css">
	.st0{fill:#28577A;}
	.st1{fill:#00284A;}
	.st2{fill:#627F9D;}
	.st3{fill:#F8B334;}
</style>
<path class="st0" d="M4.1,12.1L2.2,14c-0.6,0.6-0.9,1.4-0.9,2.2c0,0.8,0.3,1.6,0.9,2.2L9.7,26l10.4-10.6l-3.2-3.3H4.1z"/>
<path class="st1" d="M10.8,26.7L15,31c0.6,0.6,1.3,0.9,2.1,0.9c0.8,0,1.6-0.3,2.1-0.9l1.8-1.9v-13L10.8,26.7z"/>
<path class="st2" d="M21.3,2.8l-1.9-1.9C18.9,0.3,18.1,0,17.3,0c-0.8,0-1.6,0.3-2.1,0.9l-9.4,9.5h15.5L21.3,2.8z"/>
<path class="st3" d="M32.4,13.9L23,4.4v23.4l9.4-9.5c0.6-0.6,0.9-1.4,0.9-2.2C33.3,15.3,33,14.5,32.4,13.9"/>
</svg>
